<svg id="f2269cbe-7584-4f36-b59e-4738b56a673f" data-name="LETRAS copia" xmlns="http://www.w3.org/2000/svg" viewBox="0 0 1000 1000"><defs><style>.e8914fd6-787a-4441-8082-07d4cdc92127{fill:#6a9eda;}</style></defs><g id="a066416c-f38e-4c9a-836e-ca822aab70f9" data-name="Y"><rect class="e8914fd6-787a-4441-8082-07d4cdc92127" x="677.69" y="700" width="144.32" height="300" rx="72.16"/><rect class="e8914fd6-787a-4441-8082-07d4cdc92127" x="587.43" y="462.95" width="144.32" height="396.73" rx="72.16" transform="translate(-274.43 660.1) rotate(-45)"/><rect class="e8914fd6-787a-4441-8082-07d4cdc92127" x="766.36" y="462.82" width="144.32" height="397.2" rx="72.16" transform="translate(963.75 1722.05) rotate(-135)"/></g><g id="e25850b8-5454-4e97-a3b1-cd6c18ca42bd" data-name="L"><rect class="e8914fd6-787a-4441-8082-07d4cdc92127" x="1" y="500" width="144.32" height="500" rx="72.16"/><rect class="e8914fd6-787a-4441-8082-07d4cdc92127" x="177.84" y="677.84" width="144.32" height="500" rx="72.16" transform="translate(-677.84 1177.84) rotate(-90)"/></g><path class="e8914fd6-787a-4441-8082-07d4cdc92127" d="M907,149.48a81,81,0,0,0-7-12.41c-22.75-34.84-55.27-54.68-95.89-61.41-36.56-6-72-1.29-105.89,13.69-7.89,3.49-15,8.34-22.52,12.56-12.84,7.24-26.27,13-41.2,13.94-16.32,1.08-31.3-4.89-38.18-20.12-4.75-10.51-3.23-20.87,1.56-30.83,8.3-17.3,22.18-29.07,38.89-37.71A240.74,240.74,0,0,1,719.59,1.88c51.86-6.15,101.13,2.76,147.25,27.38,44.95,24,79.53,58.62,103.76,103.45a238.64,238.64,0,0,1,28.24,92.81q9.28,103-55.84,183.5c-23.19,28.59-51.67,50.63-84.8,66.59a239.72,239.72,0,0,1-83.09,23.23c-72,6.45-135.46-14-189.86-61.39C545.62,402.9,519.73,359.64,507,308.58a241.24,241.24,0,0,1-6.6-72c1.8-32.87,9.51-64.33,24-94A68.49,68.49,0,0,1,539.74,122a26,26,0,0,1,3.82-2.94c5.4-3.35,9.94-2.5,13.79,2.58,3.62,4.77,5.81,10.26,7.83,15.84a163.81,163.81,0,0,1,5.94,21.09c.53,2.46,1.56,3.38,4.21,2.94a195.73,195.73,0,0,1,76.5,2.8c2.88.64,4.16,0,5.46-2.58,5.6-11.24,12.4-21.64,22.23-29.74a34,34,0,0,1,3.65-2.65c5.93-3.73,11.85-2.72,16.29,2.79s6.41,11.87,8.27,18.39c4.23,14.84,5.55,30.2,8.43,45.28,2.4,12.58,5.16,25.09,11.57,36.4,3.64,6.46,8.39,11.2,16.6,11.51,8.95.35,15.11-3.87,20.12-10.65,4.38-5.93,7.1-12.75,10.55-19.19,10.24-19.17,22.59-36.65,40.55-49.41,18.71-13.3,39.47-20.82,62.59-20.77a70.4,70.4,0,0,1,25.55,4.73C904.48,148.75,905.31,149,907,149.48ZM565.32,216.74a14.84,14.84,0,1,0,14.93,14.75v-.2A14.75,14.75,0,0,0,565.32,216.74ZM647,247.55c8.39,0,15.43-6.66,15.16-14.67-.32-9.2-6.86-14.95-14.84-15.06a14.78,14.78,0,0,0-15.11,14.45v.28A14.71,14.71,0,0,0,647,247.55Z" transform="translate(0)"/><g id="ff42d613-6a25-4fc6-bec0-a34bbec290aa" data-name="M"><rect class="e8914fd6-787a-4441-8082-07d4cdc92127" x="1" y="0.05" width="144.32" height="500" rx="72.16"/><rect class="e8914fd6-787a-4441-8082-07d4cdc92127" x="357.4" width="144.32" height="500" rx="72.16"/><rect class="e8914fd6-787a-4441-8082-07d4cdc92127" x="89.15" y="-37" width="144.32" height="396.73" rx="72.16" transform="translate(-66.86 161.33) rotate(-45)"/><rect class="e8914fd6-787a-4441-8082-07d4cdc92127" x="268.08" y="-37.12" width="144.32" height="397.2" rx="72.16" transform="translate(466.64 516.25) rotate(-135)"/></g></svg>