<svg id="LETRAS" xmlns="http://www.w3.org/2000/svg" xmlns:xlink="http://www.w3.org/1999/xlink" viewBox="0 0 1000 1000"><defs><style>.cls-1{fill:url(#Degradado_sin_nombre_24);}.cls-2{fill:url(#Degradado_sin_nombre_92);}.cls-3{fill:url(#Degradado_sin_nombre_24-2);}.cls-4{fill:url(#Degradado_sin_nombre_24-3);}.cls-5{fill:url(#Degradado_sin_nombre_24-4);}.cls-6{fill:url(#Degradado_sin_nombre_89);}.cls-7{fill:url(#Degradado_sin_nombre_24-5);}.cls-8{fill:url(#Degradado_sin_nombre_37);}.cls-9{fill:url(#Degradado_sin_nombre_37-2);}.cls-10{fill:url(#Degradado_sin_nombre_83);}</style><linearGradient id="Degradado_sin_nombre_24" x1="749.85" y1="1000" x2="749.85" y2="700" gradientUnits="userSpaceOnUse"><stop offset="0" stop-color="#b2dafa"/><stop offset="1" stop-color="#5086c1"/></linearGradient><linearGradient id="Degradado_sin_nombre_92" x1="498.28" y1="661.31" x2="820.91" y2="661.31" gradientTransform="translate(660.81 -272.71) rotate(45)" gradientUnits="userSpaceOnUse"><stop offset="0" stop-color="#5086c1"/><stop offset="1" stop-color="#b2dafa"/></linearGradient><linearGradient id="Degradado_sin_nombre_24-2" x1="677.04" y1="661.42" x2="1000" y2="661.42" gradientTransform="translate(1899.14 536.2) rotate(135)" xlink:href="#Degradado_sin_nombre_24"/><linearGradient id="Degradado_sin_nombre_24-3" x1="73.16" x2="73.16" y2="500" xlink:href="#Degradado_sin_nombre_24"/><linearGradient id="Degradado_sin_nombre_24-4" x1="251.66" y1="820.39" x2="251.66" y2="320.39" gradientTransform="translate(-1.66 357.45)" xlink:href="#Degradado_sin_nombre_24"/><radialGradient id="Degradado_sin_nombre_89" cx="750" cy="250" r="250" gradientUnits="userSpaceOnUse"><stop offset="0.12" stop-color="#b2dafa"/><stop offset="0.99" stop-color="#5086c1"/></radialGradient><linearGradient id="Degradado_sin_nombre_24-5" x1="73.16" y1="500.05" x2="73.16" y2="0.05" xlink:href="#Degradado_sin_nombre_24"/><linearGradient id="Degradado_sin_nombre_37" x1="429.56" y1="500" x2="429.56" y2="0" xlink:href="#Degradado_sin_nombre_24"/><linearGradient id="Degradado_sin_nombre_37-2" x1="0" y1="161.37" x2="322.62" y2="161.37" gradientTransform="translate(161.35 -66.8) rotate(45)" xlink:href="#Degradado_sin_nombre_24"/><linearGradient id="Degradado_sin_nombre_83" x1="178.76" y1="161.48" x2="501.72" y2="161.48" gradientTransform="translate(695.01 35.08) rotate(135)" xlink:href="#Degradado_sin_nombre_24"/></defs><g id="Y"><rect class="cls-1" x="677.69" y="700" width="144.32" height="300" rx="72.16"/><rect class="cls-2" x="587.43" y="462.95" width="144.32" height="396.73" rx="72.16" transform="translate(-274.43 660.1) rotate(-45)"/><rect class="cls-3" x="766.36" y="462.82" width="144.32" height="397.2" rx="72.16" transform="translate(963.75 1722.05) rotate(-135)"/></g><g id="L"><rect class="cls-4" x="1" y="500" width="144.32" height="500" rx="72.16"/><rect class="cls-5" x="177.84" y="677.84" width="144.32" height="500" rx="72.16" transform="translate(-677.84 1177.84) rotate(-90)"/></g><path class="cls-6" d="M907,149.48a81,81,0,0,0-7-12.41c-22.75-34.84-55.27-54.68-95.89-61.41-36.56-6-72-1.29-105.89,13.69-7.89,3.49-15,8.34-22.52,12.56-12.84,7.24-26.27,13-41.2,13.94-16.32,1.08-31.3-4.89-38.18-20.12-4.75-10.51-3.23-20.87,1.56-30.83,8.3-17.3,22.18-29.07,38.89-37.71A240.74,240.74,0,0,1,719.59,1.88c51.86-6.15,101.13,2.76,147.25,27.38,44.95,24,79.53,58.62,103.76,103.45a238.64,238.64,0,0,1,28.24,92.81q9.28,103-55.84,183.5c-23.19,28.59-51.67,50.63-84.8,66.59a239.72,239.72,0,0,1-83.09,23.23c-72,6.45-135.46-14-189.86-61.39C545.62,402.9,519.73,359.64,507,308.58a241.24,241.24,0,0,1-6.6-72c1.8-32.87,9.51-64.33,24-94A68.49,68.49,0,0,1,539.74,122a26,26,0,0,1,3.82-2.94c5.4-3.35,9.94-2.5,13.79,2.58,3.62,4.77,5.81,10.26,7.83,15.84a163.81,163.81,0,0,1,5.94,21.09c.53,2.46,1.56,3.38,4.21,2.94a195.73,195.73,0,0,1,76.5,2.8c2.88.64,4.16,0,5.46-2.58,5.6-11.24,12.4-21.64,22.23-29.74a34,34,0,0,1,3.65-2.65c5.93-3.73,11.85-2.72,16.29,2.79s6.41,11.87,8.27,18.39c4.23,14.84,5.55,30.2,8.43,45.28,2.4,12.58,5.16,25.09,11.57,36.4,3.64,6.46,8.39,11.2,16.6,11.51,8.95.35,15.11-3.87,20.12-10.65,4.38-5.93,7.1-12.75,10.55-19.19,10.24-19.17,22.59-36.65,40.55-49.41,18.71-13.3,39.47-20.82,62.59-20.77a70.4,70.4,0,0,1,25.55,4.73C904.48,148.75,905.31,149,907,149.48ZM565.32,216.74a14.84,14.84,0,1,0,14.93,14.75v-.2A14.75,14.75,0,0,0,565.32,216.74ZM647,247.55c8.39,0,15.43-6.66,15.16-14.67-.32-9.2-6.86-14.95-14.84-15.06a14.78,14.78,0,0,0-15.11,14.45v.28A14.71,14.71,0,0,0,647,247.55Z" transform="translate(0)"/><g id="M"><rect class="cls-7" x="1" y="0.05" width="144.32" height="500" rx="72.16"/><rect class="cls-8" x="357.4" width="144.32" height="500" rx="72.16"/><rect class="cls-9" x="89.15" y="-37" width="144.32" height="396.73" rx="72.16" transform="translate(-66.86 161.33) rotate(-45)"/><rect class="cls-10" x="268.08" y="-37.12" width="144.32" height="397.2" rx="72.16" transform="translate(466.64 516.25) rotate(-135)"/></g></svg>