<svg id="LOGO" xmlns="http://www.w3.org/2000/svg" viewBox="0 0 1000 1000"><defs><style>.cls-1{fill:#5086c1;}</style></defs><path class="cls-1" d="M813.94,299a162.8,162.8,0,0,0-14-24.82c-45.5-69.68-110.55-109.36-191.78-122.82-73.13-12.1-143.89-2.58-211.78,27.38-15.77,7-30.07,16.67-45.05,25.11-25.67,14.49-52.54,25.91-82.39,27.89-32.64,2.15-62.6-9.78-76.37-40.25-9.5-21-6.45-41.73,3.14-61.65,16.58-34.61,44.36-58.14,77.77-75.42A481.69,481.69,0,0,1,439.18,3.76C542.91-8.55,641.45,9.27,733.69,58.52c89.88,48,159,117.24,207.51,206.89,31.38,58.07,50.54,119.9,56.48,185.63q18.59,206-111.68,367C839.61,875.21,782.66,919.3,716.41,951.22c-52.58,25.33-108,41.22-166.2,46.46C406.28,1010.58,279.3,969.75,170.5,874.9,91.24,805.79,39.46,719.27,14,617.16A483.18,483.18,0,0,1,.83,473.2c3.6-65.73,19-128.66,48.09-188A136.79,136.79,0,0,1,79.47,244a53.22,53.22,0,0,1,7.64-5.89c10.82-6.69,19.89-5,27.6,5.16,7.24,9.54,11.61,20.52,15.65,31.68a330,330,0,0,1,11.89,42.17c1,4.93,3.11,6.77,8.41,5.9,51.36-8.47,102.39-6.08,153,5.58,5.77,1.29,8.32.09,10.93-5.16C325.78,301,339.38,280.18,359,264a70.23,70.23,0,0,1,7.29-5.3c11.88-7.46,23.71-5.43,32.59,5.57,8.71,10.82,12.83,23.74,16.55,36.79,8.45,29.68,11.1,60.4,16.85,90.57,4.8,25.16,10.33,50.17,23.14,72.8,7.28,12.9,16.78,22.4,33.2,23,17.9.7,30.23-7.74,40.24-21.32,8.77-11.84,14.2-25.49,21.1-38.37,20.47-38.34,45.18-73.29,81.1-98.83,37.42-26.59,78.93-41.64,125.19-41.53a141,141,0,0,1,51.1,9.45C809,297.49,810.61,297.89,813.94,299ZM130.65,433.48A29.68,29.68,0,1,0,160.5,463v-.4A29.51,29.51,0,0,0,130.65,433.48ZM294,495.09c16.78,0,30.86-13.3,30.32-29.33-.63-18.41-13.72-29.89-29.68-30.13a29.57,29.57,0,0,0-30.21,28.91c0,.19,0,.37,0,.55C264.45,482,277.38,495.12,294,495.09Z" transform="translate(0 0)"/></svg>